$MeshFormat
4.1 0 8
$EndMeshFormat
$Entities
4 4 1 0
1 -0.2200000000000002 -1.62 0 0
2 3.02 -1.62 0 0
3 3.02 1.62 0 0
4 -0.2200000000000002 1.62 0 0
1 -0.2200001000000003 -1.6200001 -1e-07 3.0200001 -1.6199999 1e-07 1 2 2 1 -2
2 3.0199999 -1.6200001 -1e-07 3.0200001 1.6200001 1e-07 1 2 2 2 -3
3 -0.2200001000000003 1.6199999 -1e-07 3.0200001 1.6200001 1e-07 1 2 2 3 -4
4 -0.2200001000000002 -1.6200001 -1e-07 -0.2199999000000002 1.6200001 1e-07 1 2 2 4 -1
1 -0.2200001000000003 -1.6200001 -1e-07 3.0200001 1.6200001 1e-07 1 1 4 1 2 3 4
$EndEntities
$Nodes
9 98 1 98
0 1 0 1
1
-0.2200000000000002 -1.62 0
0 2 0 1
2
3.02 -1.62 0
0 3 0 1
3
3.02 1.62 0
0 4 0 1
4
-0.2200000000000002 1.62 0
1 1 0 7
5
6
7
8
9
10
11
0.1849999999999994 -1.62 0
0.5899999999999992 -1.62 0
0.9949999999999981 -1.62 0
1.399999999999996 -1.62 0
1.804999999999996 -1.62 0
2.209999999999997 -1.62 0
2.614999999999998 -1.62 0
1 2 0 7
12
13
14
15
16
17
18
3.02 -1.215000000000001 0
3.02 -0.8100000000000007 0
3.02 -0.4050000000000018 0
3.02 -3.552713678800501e-15 0
3.02 0.4049999999999958 0
3.02 0.8099999999999974 0
3.02 1.214999999999999 0
1 3 0 7
19
20
21
22
23
24
25
2.615 1.62 0
2.210000000000001 1.62 0
1.805000000000002 1.62 0
1.400000000000003 1.62 0
0.9950000000000041 1.62 0
0.5900000000000025 1.62 0
0.1850000000000014 1.62 0
1 4 0 7
26
27
28
29
30
31
32
-0.2200000000000002 1.215000000000001 0
-0.2200000000000002 0.8100000000000007 0
-0.2200000000000002 0.4050000000000018 0
-0.2200000000000002 3.552713678800501e-15 0
-0.2200000000000002 -0.4049999999999958 0
-0.2200000000000002 -0.8099999999999974 0
-0.2200000000000002 -1.214999999999999 0
2 1 0 66
33
34
35
36
37
38
39
40
41
42
43
44
45
46
47
48
49
50
51
52
53
54
55
56
57
58
59
60
61
62
63
64
65
66
67
68
69
70
71
72
73
74
75
76
77
78
79
80
81
82
83
84
85
86
87
88
89
90
91
92
93
94
95
96
97
98
0.1387488029295278 -0.2076673564641824 0
1.602499999999996 -1.269259711467303 0
2.627120383313823 0.2231674080121727 0
1.197500000000004 1.269259711467303 0
0.7840496055462166 -1.27327126194477 0
2.669259711467304 -0.6075000000000013 0
0.1631710997298057 0.5482921555105552 0
2.00649279420924 1.281442077079942 0
0.1347320226914086 -0.9611717074635513 0
2.410783865441243 -1.277057321752387 0
2.628706700885651 1.01441368129973 0
0.3875000000000022 1.269259711467301 0
2.007213977573537 -1.270559313181483 0
1.79605198792441 -0.923874637880036 0
1.398508664654066 -0.9194119587588455 0
1.5918597670919 -0.5739590408565882 0
1.189529439680544 -0.5726712087696368 0
1.398417449555476 -0.2179803408371064 0
1.766305139837838 -0.2180493390156574 0
1.584646363136934 0.1398082177173229 0
1.194260635448732 0.1345623226778056 0
1.396484499764273 0.4856030070408715 0
1.790297742054915 0.4920851794188313 0
0.9945897190969958 0.4845645540739107 0
0.7918917257576199 0.1338653931454896 0
1.602499999999992 0.835182019728874 0
0.5899999999999972 0.4844417311961755 0
0.7951492883191271 0.8176822776703933 0
2.002255607708463 0.8111163637800805 0
2.228836858308821 0.4609349588304198 0
0.3877302126212991 0.1457919546990189 0
0.5899999999999985 -0.2170388458692169 0
0.3563092307656719 -0.5727864843109169 0
0.7568082063373109 -0.5900591383293488 0
0.5497209491039045 -0.9294806807243374 0
2.257521890651359 -0.8778261402139226 0
0.792500000000003 1.269259711467302 0
2.669259711467302 0.6074999999999966 0
2.298849357476743 0.08603101882783325 0
2.575721305675186 -0.2002263208695109 0
2.313380188149039 -0.5015809274496065 0
1.602500000000002 1.269259711467304 0
1.195843045033379 -1.270077059184255 0
0.9836261798042163 -0.923740228899316 0
0.9868179094632804 -0.2215536363303356 0
1.197499999999994 0.8351820197288727 0
2.682717573922695 -1.011099743593239 0
0.1150671371053735 0.9935070978400986 0
2.398393943372304 1.318920898297956 0
0.3992720738562967 -1.286840800067488 0
2.347140724114914 0.7896230424767374 0
0.4315281637891614 0.8097623475132725 0
1.963522385074582 -0.5754277020421319 0
0.05389567200953627 0.2025000000000027 0
1.956762971240667 0.1369731519781592 0
0.03057367666357003 -0.6074999999999966 0
0.07648057706539646 -1.323519422934603 0
2.723519422934603 -1.323519422934604 0
0.0764805770653969 1.323519422934604 0
2.723519422934603 1.323519422934603 0
2.145756891242343 -0.2120466864284857 0
0.9950000000000043 1.052220865598093 0
1.400000000000001 1.052220865598092 0
1.80499999999999 1.052220865598084 0
0.6229210970924435 1.052006062657581 0
2.206644742204332 1.05415020847346 0
$EndNodes
$Elements
5 194 1 194
1 1 1 8
1 1 5
2 5 6
3 6 7
4 7 8
5 8 9
6 9 10
7 10 11
8 11 2
1 2 1 8
9 2 12
10 12 13
11 13 14
12 14 15
13 15 16
14 16 17
15 17 18
16 18 3
1 3 1 8
17 3 19
18 19 20
19 20 21
20 21 22
21 22 23
22 23 24
23 24 25
24 25 4
1 4 1 8
25 4 26
26 26 27
27 27 28
28 28 29
29 29 30
30 30 31
31 31 32
32 32 1
2 1 2 162
33 68 79 38
34 38 73 68
35 35 70 62
36 39 63 59
37 62 71 35
38 39 86 63
39 15 72 14
40 41 67 65
41 37 76 67
42 65 88 41
43 35 72 15
44 14 72 38
45 33 65 64
46 33 64 63
47 49 77 66
48 67 76 66
49 42 79 68
50 71 72 35
51 66 77 64
52 66 76 49
53 71 93 72
54 72 93 73
55 70 83 62
56 59 84 39
57 65 66 64
58 80 84 44
59 84 97 44
60 73 85 68
61 72 73 38
62 65 67 66
63 67 82 37
64 45 68 46
65 16 70 35
66 24 69 23
67 9 45 34
68 23 69 36
69 42 45 10
70 10 45 9
71 17 70 16
72 16 35 15
73 45 46 34
74 47 75 34
75 42 68 45
76 43 70 17
77 44 69 24
78 21 74 40
79 46 47 34
80 34 75 8
81 36 74 22
82 9 34 8
83 23 36 22
84 30 33 29
85 11 42 10
86 18 43 17
87 25 44 24
88 32 41 31
89 7 37 6
90 14 38 13
91 54 56 53
92 7 75 37
93 21 40 20
94 28 39 27
95 49 76 47
96 48 49 47
97 46 48 47
98 48 50 49
99 50 77 49
100 52 55 54
101 58 78 54
102 59 63 57
103 22 74 21
104 47 76 75
105 56 57 53
106 55 61 58
107 64 77 57
108 55 62 61
109 56 59 57
110 8 75 7
111 48 51 50
112 52 53 50
113 53 77 50
114 52 54 53
115 57 77 53
116 63 64 57
117 75 76 37
118 51 52 50
119 55 58 54
120 56 78 60
121 54 78 56
122 56 60 59
123 62 87 71
124 81 98 43
125 43 98 83
126 27 80 26
127 13 79 12
128 20 81 19
129 63 86 33
130 6 82 5
131 37 82 6
132 33 88 65
133 38 79 13
134 39 80 27
135 40 81 20
136 51 93 87
137 41 82 67
138 68 85 46
139 48 85 51
140 33 86 29
141 28 86 39
142 55 87 62
143 51 87 52
144 30 88 33
145 41 88 31
146 1 89 32
147 3 92 18
148 2 90 11
149 26 91 4
150 5 89 1
151 4 91 25
152 12 90 2
153 19 92 3
154 85 93 51
155 43 83 70
156 62 83 61
157 60 84 59
158 87 93 71
159 46 85 48
160 39 84 80
161 29 86 28
162 52 87 55
163 73 93 85
164 80 91 26
165 81 92 19
166 79 90 12
167 31 88 30
168 18 92 43
169 25 91 44
170 32 89 41
171 11 90 42
172 82 89 5
173 94 97 60
174 69 94 36
175 74 96 40
176 78 95 94
177 58 95 78
178 78 94 60
179 36 95 74
180 94 95 36
181 61 96 58
182 95 96 74
183 58 96 95
184 69 97 94
185 44 97 69
186 43 92 81
187 42 90 79
188 44 91 80
189 61 98 96
190 96 98 40
191 41 89 82
192 40 98 81
193 60 97 84
194 83 98 61
$EndElements
